<mxfile host="app.diagrams.net" modified="2023-12-21T12:58:33.261Z" agent="Mozilla/5.0 (Windows NT 10.0; Win64; x64) AppleWebKit/537.36 (KHTML, like Gecko) Chrome/120.0.0.0 Safari/537.36" etag="K96mr-dTWV5iOwBArsrx" version="22.1.11" type="github">
  <diagram name="Page-1" id="5_G9m9FVBPw19RZ8Uyyu">
    <mxGraphModel dx="1760" dy="868" grid="1" gridSize="10" guides="1" tooltips="1" connect="1" arrows="1" fold="1" page="1" pageScale="1" pageWidth="850" pageHeight="1100" math="0" shadow="0">
      <root>
        <mxCell id="0" />
        <mxCell id="1" parent="0" />
        <mxCell id="0wn-Th5WQmM_nwqY7X9k-1" value="&lt;font style=&quot;font-size: 14px;&quot;&gt;Message&lt;/font&gt;" style="rounded=0;whiteSpace=wrap;html=1;" vertex="1" parent="1">
          <mxGeometry x="360" y="200" width="120" height="60" as="geometry" />
        </mxCell>
        <mxCell id="0wn-Th5WQmM_nwqY7X9k-2" value="" style="endArrow=classic;html=1;rounded=0;exitX=0.667;exitY=1;exitDx=0;exitDy=0;exitPerimeter=0;entryX=0.5;entryY=0;entryDx=0;entryDy=0;" edge="1" parent="1" source="0wn-Th5WQmM_nwqY7X9k-1" target="0wn-Th5WQmM_nwqY7X9k-3">
          <mxGeometry width="50" height="50" relative="1" as="geometry">
            <mxPoint x="400" y="390" as="sourcePoint" />
            <mxPoint x="520" y="360" as="targetPoint" />
          </mxGeometry>
        </mxCell>
        <mxCell id="0wn-Th5WQmM_nwqY7X9k-3" value="&lt;font style=&quot;font-size: 14px;&quot;&gt;Enitity Resolution&lt;/font&gt;" style="rounded=0;whiteSpace=wrap;html=1;" vertex="1" parent="1">
          <mxGeometry x="480" y="310" width="120" height="60" as="geometry" />
        </mxCell>
        <mxCell id="0wn-Th5WQmM_nwqY7X9k-4" value="Intent Classification" style="rounded=0;whiteSpace=wrap;html=1;" vertex="1" parent="1">
          <mxGeometry x="240" y="310" width="120" height="60" as="geometry" />
        </mxCell>
        <mxCell id="0wn-Th5WQmM_nwqY7X9k-5" value="" style="endArrow=classic;html=1;rounded=0;entryX=0.5;entryY=0;entryDx=0;entryDy=0;exitX=0.325;exitY=1.017;exitDx=0;exitDy=0;exitPerimeter=0;" edge="1" parent="1" source="0wn-Th5WQmM_nwqY7X9k-1" target="0wn-Th5WQmM_nwqY7X9k-4">
          <mxGeometry width="50" height="50" relative="1" as="geometry">
            <mxPoint x="400" y="400" as="sourcePoint" />
            <mxPoint x="450" y="350" as="targetPoint" />
          </mxGeometry>
        </mxCell>
        <mxCell id="0wn-Th5WQmM_nwqY7X9k-6" value="Intent" style="rounded=0;whiteSpace=wrap;html=1;" vertex="1" parent="1">
          <mxGeometry x="240" y="440" width="120" height="60" as="geometry" />
        </mxCell>
        <mxCell id="0wn-Th5WQmM_nwqY7X9k-7" value="Entity Resolution" style="rounded=0;whiteSpace=wrap;html=1;" vertex="1" parent="1">
          <mxGeometry x="480" y="440" width="120" height="60" as="geometry" />
        </mxCell>
        <mxCell id="0wn-Th5WQmM_nwqY7X9k-8" value="" style="endArrow=classic;html=1;rounded=0;exitX=0.5;exitY=1;exitDx=0;exitDy=0;" edge="1" parent="1" source="0wn-Th5WQmM_nwqY7X9k-3" target="0wn-Th5WQmM_nwqY7X9k-7">
          <mxGeometry width="50" height="50" relative="1" as="geometry">
            <mxPoint x="400" y="400" as="sourcePoint" />
            <mxPoint x="450" y="350" as="targetPoint" />
          </mxGeometry>
        </mxCell>
        <mxCell id="0wn-Th5WQmM_nwqY7X9k-9" value="" style="endArrow=classic;html=1;rounded=0;exitX=0.4;exitY=1;exitDx=0;exitDy=0;exitPerimeter=0;entryX=0.4;entryY=0;entryDx=0;entryDy=0;entryPerimeter=0;" edge="1" parent="1" source="0wn-Th5WQmM_nwqY7X9k-4" target="0wn-Th5WQmM_nwqY7X9k-6">
          <mxGeometry width="50" height="50" relative="1" as="geometry">
            <mxPoint x="400" y="400" as="sourcePoint" />
            <mxPoint x="450" y="350" as="targetPoint" />
          </mxGeometry>
        </mxCell>
        <mxCell id="0wn-Th5WQmM_nwqY7X9k-10" value="AI Brain" style="ellipse;shape=cloud;whiteSpace=wrap;html=1;" vertex="1" parent="1">
          <mxGeometry x="350" y="560" width="120" height="80" as="geometry" />
        </mxCell>
        <mxCell id="0wn-Th5WQmM_nwqY7X9k-11" value="" style="endArrow=classic;html=1;rounded=0;entryX=0.88;entryY=0.25;entryDx=0;entryDy=0;entryPerimeter=0;exitX=0.5;exitY=1;exitDx=0;exitDy=0;" edge="1" parent="1" source="0wn-Th5WQmM_nwqY7X9k-7" target="0wn-Th5WQmM_nwqY7X9k-10">
          <mxGeometry width="50" height="50" relative="1" as="geometry">
            <mxPoint x="400" y="530" as="sourcePoint" />
            <mxPoint x="450" y="480" as="targetPoint" />
          </mxGeometry>
        </mxCell>
        <mxCell id="0wn-Th5WQmM_nwqY7X9k-12" value="" style="endArrow=classic;html=1;rounded=0;entryX=0.117;entryY=0.325;entryDx=0;entryDy=0;entryPerimeter=0;exitX=0.4;exitY=1;exitDx=0;exitDy=0;exitPerimeter=0;" edge="1" parent="1" source="0wn-Th5WQmM_nwqY7X9k-6" target="0wn-Th5WQmM_nwqY7X9k-10">
          <mxGeometry width="50" height="50" relative="1" as="geometry">
            <mxPoint x="400" y="530" as="sourcePoint" />
            <mxPoint x="450" y="480" as="targetPoint" />
          </mxGeometry>
        </mxCell>
        <mxCell id="0wn-Th5WQmM_nwqY7X9k-13" value="Response &lt;br&gt;Selection" style="rounded=0;whiteSpace=wrap;html=1;" vertex="1" parent="1">
          <mxGeometry x="350" y="690" width="120" height="60" as="geometry" />
        </mxCell>
        <mxCell id="0wn-Th5WQmM_nwqY7X9k-14" value="Response with the highest similarity" style="rounded=0;whiteSpace=wrap;html=1;" vertex="1" parent="1">
          <mxGeometry x="350" y="800" width="120" height="60" as="geometry" />
        </mxCell>
        <mxCell id="0wn-Th5WQmM_nwqY7X9k-15" value="" style="endArrow=classic;html=1;rounded=0;" edge="1" parent="1" source="0wn-Th5WQmM_nwqY7X9k-10" target="0wn-Th5WQmM_nwqY7X9k-13">
          <mxGeometry width="50" height="50" relative="1" as="geometry">
            <mxPoint x="400" y="670" as="sourcePoint" />
            <mxPoint x="450" y="620" as="targetPoint" />
          </mxGeometry>
        </mxCell>
        <mxCell id="0wn-Th5WQmM_nwqY7X9k-16" value="" style="endArrow=classic;html=1;rounded=0;exitX=0.5;exitY=1;exitDx=0;exitDy=0;" edge="1" parent="1" source="0wn-Th5WQmM_nwqY7X9k-13" target="0wn-Th5WQmM_nwqY7X9k-14">
          <mxGeometry width="50" height="50" relative="1" as="geometry">
            <mxPoint x="450" y="770" as="sourcePoint" />
            <mxPoint x="500" y="720" as="targetPoint" />
          </mxGeometry>
        </mxCell>
        <mxCell id="0wn-Th5WQmM_nwqY7X9k-17" value="&lt;u&gt;&lt;font style=&quot;font-size: 24px;&quot;&gt;How a chatbot works&lt;/font&gt;&lt;/u&gt;" style="text;html=1;strokeColor=none;fillColor=none;align=center;verticalAlign=middle;whiteSpace=wrap;rounded=0;" vertex="1" parent="1">
          <mxGeometry x="277.5" y="130" width="265" height="30" as="geometry" />
        </mxCell>
      </root>
    </mxGraphModel>
  </diagram>
</mxfile>
